# xmcd
#
# Track frame offsets: 
#        182
#        18877
#        38625
#        60112
#        75477
#        98465
#        120602
#        137727
#        154687
#        177712
#        193962
#        212350
#        229862
#        252722
#
# Disc length: 3585 seconds
#
# Revision: 2
# Processed by: cddbd v1.5.2PL0 Copyright (c) Steve Scherf et al.
# Submitted via: ExactAudioCopy v0.99pb5
#
DISCID=b00dff0e
DTITLE=Dana Gillespie - Blue One
DYEAR=1995
DGENRE=Blues
TTITLE0=True Blue Love
TTITLE1=Blue Temptation
TTITLE2=Once In A Blue Moon
TTITLE3=Scream Blue Murder
TTITLE4=Blues Line
TTITLE5=Full Circle Blues
TTITLE6=Blue Moves
TTITLE7=Blue Papa
TTITLE8=Blue Room
TTITLE9=Blues Is All I Ever Knew
TTITLE10=Blue Country
TTITLE11=Blue Light
TTITLE12=Big Daddy Blues
TTITLE13=Where Blue Begins
EXTD=
EXTT0=
EXTT1=
EXTT2=
EXTT3=
EXTT4=
EXTT5=
EXTT6=
EXTT7=
EXTT8=
EXTT9=
EXTT10=
EXTT11=
EXTT12=
EXTT13=
PLAYORDER=
